<?xml version="1.0" encoding="UTF-8" standalone="no"?><svg xmlns="http://www.w3.org/2000/svg" xmlns:xlink="http://www.w3.org/1999/xlink" contentScriptType="application/ecmascript" contentStyleType="text/css" height="414px" preserveAspectRatio="none" style="width:436px;height:414px;" version="1.1" viewBox="0 0 436 414" width="436px" zoomAndPan="magnify"><defs><filter height="300%" id="f94y75uqzzy6y" width="300%" x="-1" y="-1"><feGaussianBlur result="blurOut" stdDeviation="2.0"/><feColorMatrix in="blurOut" result="blurOut2" type="matrix" values="0 0 0 0 0 0 0 0 0 0 0 0 0 0 0 0 0 0 .4 0"/><feOffset dx="4.0" dy="4.0" in="blurOut2" result="blurOut3"/><feBlend in="SourceGraphic" in2="blurOut3" mode="normal"/></filter></defs><g><!--cluster Subject--><rect fill="#FFFFFF" filter="url(#f94y75uqzzy6y)" height="387" style="stroke: #000000; stroke-width: 1.5;" width="142" x="14" y="16"/><text fill="#000000" font-family="sans-serif" font-size="14" font-weight="bold" lengthAdjust="spacingAndGlyphs" textLength="52" x="59" y="31.5352">Subject</text><!--cluster Observer--><rect fill="#FFFFFF" filter="url(#f94y75uqzzy6y)" height="341.5" style="stroke: #000000; stroke-width: 1.5;" width="152" x="273" y="29"/><text fill="#000000" font-family="sans-serif" font-size="14" font-weight="bold" lengthAdjust="spacingAndGlyphs" textLength="65" x="316.5" y="44.5352">Observer</text><!--class Subject--><rect fill="#FEFECE" filter="url(#f94y75uqzzy6y)" height="86.8652" id="Subject" style="stroke: #A80036; stroke-width: 1.5;" width="114" x="28" y="43"/><ellipse cx="61" cy="59" fill="#A9DCDF" rx="11" ry="11" style="stroke: #A80036; stroke-width: 1.0;"/><path d="M61.1133,54.5981 L59.9595,59.6699 L62.2754,59.6699 Z M59.6191,52.3569 L62.6157,52.3569 L65.9609,64.75 L63.5122,64.75 L62.7485,61.687 L59.4697,61.687 L58.7227,64.75 L56.2739,64.75 Z "/><text fill="#000000" font-family="sans-serif" font-size="12" font-style="italic" lengthAdjust="spacingAndGlyphs" textLength="42" x="79" y="63.5352">Subject</text><line style="stroke: #A80036; stroke-width: 1.5;" x1="29" x2="141" y1="75" y2="75"/><line style="stroke: #A80036; stroke-width: 1.5;" x1="29" x2="141" y1="83" y2="83"/><text fill="#000000" font-family="sans-serif" font-size="11" lengthAdjust="spacingAndGlyphs" textLength="102" x="34" y="97.6348">RegisterObserver()</text><text fill="#000000" font-family="sans-serif" font-size="11" lengthAdjust="spacingAndGlyphs" textLength="100" x="34" y="110.5898">RemoveObserver()</text><text fill="#000000" font-family="sans-serif" font-size="11" lengthAdjust="spacingAndGlyphs" textLength="90" x="34" y="123.5449">NotifyObserver()</text><!--class ConcreteSubject--><rect fill="#FEFECE" filter="url(#f94y75uqzzy6y)" height="125.7305" id="ConcreteSubject" style="stroke: #A80036; stroke-width: 1.5;" width="125" x="22.5" y="269"/><ellipse cx="37.5" cy="285" fill="#ADD1B2" rx="11" ry="11" style="stroke: #A80036; stroke-width: 1.0;"/><path d="M39.9731,291.1431 Q39.3921,291.4419 38.7529,291.5913 Q38.1138,291.7407 37.4082,291.7407 Q34.9014,291.7407 33.5815,290.0889 Q32.2617,288.437 32.2617,285.3159 Q32.2617,282.1865 33.5815,280.5347 Q34.9014,278.8828 37.4082,278.8828 Q38.1138,278.8828 38.7612,279.0322 Q39.4087,279.1816 39.9731,279.4805 L39.9731,282.2031 Q39.3423,281.6221 38.7488,281.3523 Q38.1553,281.0825 37.5244,281.0825 Q36.1797,281.0825 35.4949,282.1492 Q34.8101,283.2158 34.8101,285.3159 Q34.8101,287.4077 35.4949,288.4744 Q36.1797,289.541 37.5244,289.541 Q38.1553,289.541 38.7488,289.2712 Q39.3423,289.0015 39.9731,288.4204 Z "/><text fill="#000000" font-family="sans-serif" font-size="12" lengthAdjust="spacingAndGlyphs" textLength="93" x="51.5" y="289.5352">ConcreteSubject</text><line style="stroke: #A80036; stroke-width: 1.5;" x1="23.5" x2="146.5" y1="301" y2="301"/><line style="stroke: #A80036; stroke-width: 1.5;" x1="23.5" x2="146.5" y1="309" y2="309"/><text fill="#000000" font-family="sans-serif" font-size="11" lengthAdjust="spacingAndGlyphs" textLength="102" x="28.5" y="323.6348">RegisterObserver()</text><text fill="#000000" font-family="sans-serif" font-size="11" lengthAdjust="spacingAndGlyphs" textLength="100" x="28.5" y="336.5898">RemoveObserver()</text><text fill="#000000" font-family="sans-serif" font-size="11" lengthAdjust="spacingAndGlyphs" textLength="90" x="28.5" y="349.5449">NotifyObserver()</text><text fill="#000000" font-family="sans-serif" font-size="11" lengthAdjust="spacingAndGlyphs" textLength="0" x="31.5" y="362.5"/><text fill="#000000" font-family="sans-serif" font-size="11" lengthAdjust="spacingAndGlyphs" textLength="51" x="28.5" y="375.4551">getState()</text><text fill="#000000" font-family="sans-serif" font-size="11" lengthAdjust="spacingAndGlyphs" textLength="50" x="28.5" y="388.4102">SetState()</text><!--class Observer--><rect fill="#FEFECE" filter="url(#f94y75uqzzy6y)" height="60.9551" id="Observer" style="stroke: #A80036; stroke-width: 1.5;" width="85" x="319.5" y="56"/><ellipse cx="334.5" cy="72" fill="#B4A7E5" rx="11" ry="11" style="stroke: #A80036; stroke-width: 1.0;"/><path d="M330.9277,68.2651 L330.9277,66.1069 L338.3071,66.1069 L338.3071,68.2651 L335.8418,68.2651 L335.8418,76.3418 L338.3071,76.3418 L338.3071,78.5 L330.9277,78.5 L330.9277,76.3418 L333.3931,76.3418 L333.3931,68.2651 Z "/><text fill="#000000" font-family="sans-serif" font-size="12" font-style="italic" lengthAdjust="spacingAndGlyphs" textLength="53" x="348.5" y="76.5352">Observer</text><line style="stroke: #A80036; stroke-width: 1.5;" x1="320.5" x2="403.5" y1="88" y2="88"/><line style="stroke: #A80036; stroke-width: 1.5;" x1="320.5" x2="403.5" y1="96" y2="96"/><text fill="#000000" font-family="sans-serif" font-size="11" lengthAdjust="spacingAndGlyphs" textLength="45" x="325.5" y="110.6348">update()</text><!--class ConcreteObserver--><rect fill="#FEFECE" filter="url(#f94y75uqzzy6y)" height="60.9551" id="ConcreteObserver" style="stroke: #A80036; stroke-width: 1.5;" width="136" x="281" y="301.5"/><ellipse cx="296" cy="317.5" fill="#ADD1B2" rx="11" ry="11" style="stroke: #A80036; stroke-width: 1.0;"/><path d="M298.4731,323.6431 Q297.8921,323.9419 297.2529,324.0913 Q296.6138,324.2407 295.9082,324.2407 Q293.4014,324.2407 292.0815,322.5889 Q290.7617,320.937 290.7617,317.8159 Q290.7617,314.6865 292.0815,313.0347 Q293.4014,311.3828 295.9082,311.3828 Q296.6138,311.3828 297.2612,311.5322 Q297.9087,311.6816 298.4731,311.9805 L298.4731,314.7031 Q297.8423,314.1221 297.2488,313.8523 Q296.6553,313.5825 296.0244,313.5825 Q294.6797,313.5825 293.9949,314.6492 Q293.3101,315.7158 293.3101,317.8159 Q293.3101,319.9077 293.9949,320.9744 Q294.6797,322.041 296.0244,322.041 Q296.6553,322.041 297.2488,321.7712 Q297.8423,321.5015 298.4731,320.9204 Z "/><text fill="#000000" font-family="sans-serif" font-size="12" lengthAdjust="spacingAndGlyphs" textLength="104" x="310" y="322.0352">ConcreteObserver</text><line style="stroke: #A80036; stroke-width: 1.5;" x1="282" x2="416" y1="333.5" y2="333.5"/><line style="stroke: #A80036; stroke-width: 1.5;" x1="282" x2="416" y1="341.5" y2="341.5"/><text fill="#000000" font-family="sans-serif" font-size="11" lengthAdjust="spacingAndGlyphs" textLength="45" x="287" y="356.1348">update()</text><!--link Subject to ConcreteSubject--><path d="M85,150.1699 C85,186.7437 85,232.5065 85,268.972 " fill="none" id="Subject-ConcreteSubject" style="stroke: #A80036; stroke-width: 1.0;"/><polygon fill="none" points="78.0001,150.1076,85,130.1076,92.0001,150.1076,78.0001,150.1076" style="stroke: #A80036; stroke-width: 1.0;"/><!--link Observer to ConcreteObserver--><path d="M359.3106,137.2888 C356.6914,186.7518 352.796,260.3132 350.6201,301.4046 " fill="none" id="Observer-ConcreteObserver" style="stroke: #A80036; stroke-width: 1.0; stroke-dasharray: 7.0,7.0;"/><polygon fill="none" points="352.3319,136.6982,360.3798,117.0964,366.3124,137.4386,352.3319,136.6982" style="stroke: #A80036; stroke-width: 1.0;"/><!--link Subject to Observer--><path d="M142.0587,86.5 C192.9435,86.5 266.5756,86.5 314.3681,86.5 " fill="none" id="Subject-Observer" style="stroke: #A80036; stroke-width: 1.0;"/><polygon fill="#A80036" points="319.4871,86.5,310.4871,82.5,314.4871,86.5,310.4871,90.5,319.4871,86.5" style="stroke: #A80036; stroke-width: 1.0;"/><text fill="#000000" font-family="sans-serif" font-size="13" lengthAdjust="spacingAndGlyphs" textLength="141" x="160.25" y="80.0684">拥有一个Observers数组</text><!--link Subject to Observer--><!--link ConcreteObserver to Subject--><path d="M315.8988,301.2183 C270.5617,259.0583 188.7389,182.9693 135.6645,133.6141 " fill="none" id="ConcreteObserver-Subject" style="stroke: #A80036; stroke-width: 1.0;"/><polygon fill="#A80036" points="131.8937,130.1076,135.7604,139.1657,135.5552,133.5125,141.2083,133.3073,131.8937,130.1076" style="stroke: #A80036; stroke-width: 1.0;"/><text fill="#000000" font-family="sans-serif" font-size="13" lengthAdjust="spacingAndGlyphs" textLength="98" x="215" y="204.5684">拥有一个Subject</text><!--
@startuml
package Subject <<rectangle>>
{
    abstract class Subject 
    {
        RegisterObserver()
        RemoveObserver()
        NotifyObserver()
    }

    class ConcreteSubject
    {
        RegisterObserver()
        RemoveObserver()
        NotifyObserver()

        getState()
        SetState()
    }
}
Subject <|- - ConcreteSubject 

package Observer <<rectangle>>
{
    interface Observer
    {
        update()
    }

    class ConcreteObserver
    {
        update()
    }
}

Observer <|.. ConcreteObserver
Subject - -> Observer : 拥有一个Observers数组
ConcreteObserver - -> Subject : 拥有一个Subject
Subject -[hidden]> Observer
@enduml

PlantUML version 1.2019.06(Sat May 25 01:10:25 CST 2019)
(GPL source distribution)
Java Runtime: Java(TM) SE Runtime Environment
JVM: Java HotSpot(TM) 64-Bit Server VM
Java Version: 12.0.2+10
Operating System: Mac OS X
OS Version: 10.14.5
Default Encoding: UTF-8
Language: zh
Country: CN
--></g></svg>