<?xml version="1.0" encoding="UTF-8" standalone="no"?><svg xmlns="http://www.w3.org/2000/svg" xmlns:xlink="http://www.w3.org/1999/xlink" contentScriptType="application/ecmascript" contentStyleType="text/css" height="443px" preserveAspectRatio="none" style="width:546px;height:443px;" version="1.1" viewBox="0 0 546 443" width="546px" zoomAndPan="magnify"><defs><filter height="300%" id="fifrgsz9vig0w" width="300%" x="-1" y="-1"><feGaussianBlur result="blurOut" stdDeviation="2.0"/><feColorMatrix in="blurOut" result="blurOut2" type="matrix" values="0 0 0 0 0 0 0 0 0 0 0 0 0 0 0 0 0 0 .4 0"/><feOffset dx="4.0" dy="4.0" in="blurOut2" result="blurOut3"/><feBlend in="SourceGraphic" in2="blurOut3" mode="normal"/></filter></defs><g><!--cluster components--><rect fill="#FFFFFF" filter="url(#fifrgsz9vig0w)" height="269" style="stroke: #000000; stroke-width: 1.5;" width="166" x="14" y="16"/><text fill="#000000" font-family="sans-serif" font-size="14" font-weight="bold" lengthAdjust="spacingAndGlyphs" textLength="88" x="53" y="31.5352">components</text><!--cluster decorators--><rect fill="#FFFFFF" filter="url(#fifrgsz9vig0w)" height="269" style="stroke: #000000; stroke-width: 1.5;" width="347" x="188" y="163"/><text fill="#000000" font-family="sans-serif" font-size="14" font-weight="bold" lengthAdjust="spacingAndGlyphs" textLength="76" x="323.5" y="178.5352">decorators</text><!--class Component--><rect fill="#FEFECE" filter="url(#fifrgsz9vig0w)" height="86.8652" id="Component" style="stroke: #A80036; stroke-width: 1.5;" width="98" x="61" y="43"/><ellipse cx="76" cy="59" fill="#A9DCDF" rx="11" ry="11" style="stroke: #A80036; stroke-width: 1.0;"/><path d="M76.1133,54.5981 L74.9595,59.6699 L77.2754,59.6699 Z M74.6191,52.3569 L77.6157,52.3569 L80.9609,64.75 L78.5122,64.75 L77.7485,61.687 L74.4697,61.687 L73.7227,64.75 L71.2739,64.75 Z "/><text fill="#000000" font-family="sans-serif" font-size="12" font-style="italic" lengthAdjust="spacingAndGlyphs" textLength="66" x="90" y="63.5352">Component</text><line style="stroke: #A80036; stroke-width: 1.5;" x1="62" x2="158" y1="75" y2="75"/><text fill="#000000" font-family="sans-serif" font-size="11" lengthAdjust="spacingAndGlyphs" textLength="56" x="67" y="89.6348">//其他方法</text><line style="stroke: #A80036; stroke-width: 1.5;" x1="62" x2="158" y1="95.9551" y2="95.9551"/><text fill="#000000" font-family="sans-serif" font-size="11" lengthAdjust="spacingAndGlyphs" textLength="57" x="67" y="110.5898">methodA()</text><text fill="#000000" font-family="sans-serif" font-size="11" lengthAdjust="spacingAndGlyphs" textLength="55" x="67" y="123.5449">methodB()</text><!--class ConcreteComponent--><rect fill="#FEFECE" filter="url(#fifrgsz9vig0w)" height="86.8652" id="ConcreteComponent" style="stroke: #A80036; stroke-width: 1.5;" width="149" x="22.5" y="190"/><ellipse cx="37.5" cy="206" fill="#ADD1B2" rx="11" ry="11" style="stroke: #A80036; stroke-width: 1.0;"/><path d="M39.9731,212.1431 Q39.3921,212.4419 38.7529,212.5913 Q38.1138,212.7407 37.4082,212.7407 Q34.9014,212.7407 33.5815,211.0889 Q32.2617,209.437 32.2617,206.3159 Q32.2617,203.1865 33.5815,201.5347 Q34.9014,199.8828 37.4082,199.8828 Q38.1138,199.8828 38.7612,200.0322 Q39.4087,200.1816 39.9731,200.4805 L39.9731,203.2031 Q39.3423,202.6221 38.7488,202.3523 Q38.1553,202.0825 37.5244,202.0825 Q36.1797,202.0825 35.4949,203.1492 Q34.8101,204.2158 34.8101,206.3159 Q34.8101,208.4077 35.4949,209.4744 Q36.1797,210.541 37.5244,210.541 Q38.1553,210.541 38.7488,210.2712 Q39.3423,210.0015 39.9731,209.4204 Z "/><text fill="#000000" font-family="sans-serif" font-size="12" lengthAdjust="spacingAndGlyphs" textLength="117" x="51.5" y="210.5352">ConcreteComponent</text><line style="stroke: #A80036; stroke-width: 1.5;" x1="23.5" x2="170.5" y1="222" y2="222"/><text fill="#000000" font-family="sans-serif" font-size="11" lengthAdjust="spacingAndGlyphs" textLength="56" x="28.5" y="236.6348">//其他方法</text><line style="stroke: #A80036; stroke-width: 1.5;" x1="23.5" x2="170.5" y1="242.9551" y2="242.9551"/><text fill="#000000" font-family="sans-serif" font-size="11" lengthAdjust="spacingAndGlyphs" textLength="57" x="28.5" y="257.5898">methodA()</text><text fill="#000000" font-family="sans-serif" font-size="11" lengthAdjust="spacingAndGlyphs" textLength="55" x="28.5" y="270.5449">methodB()</text><!--class Decorator--><rect fill="#FEFECE" filter="url(#fifrgsz9vig0w)" height="86.8652" id="Decorator" style="stroke: #A80036; stroke-width: 1.5;" width="89" x="225.5" y="190"/><ellipse cx="240.5" cy="206" fill="#A9DCDF" rx="11" ry="11" style="stroke: #A80036; stroke-width: 1.0;"/><path d="M240.6133,201.5981 L239.4595,206.6699 L241.7754,206.6699 Z M239.1191,199.3569 L242.1157,199.3569 L245.4609,211.75 L243.0122,211.75 L242.2485,208.687 L238.9697,208.687 L238.2227,211.75 L235.7739,211.75 Z "/><text fill="#000000" font-family="sans-serif" font-size="12" font-style="italic" lengthAdjust="spacingAndGlyphs" textLength="57" x="254.5" y="210.5352">Decorator</text><line style="stroke: #A80036; stroke-width: 1.5;" x1="226.5" x2="313.5" y1="222" y2="222"/><text fill="#000000" font-family="sans-serif" font-size="11" lengthAdjust="spacingAndGlyphs" textLength="56" x="231.5" y="236.6348">//其他方法</text><line style="stroke: #A80036; stroke-width: 1.5;" x1="226.5" x2="313.5" y1="242.9551" y2="242.9551"/><text fill="#000000" font-family="sans-serif" font-size="11" lengthAdjust="spacingAndGlyphs" textLength="57" x="231.5" y="257.5898">methodA()</text><text fill="#000000" font-family="sans-serif" font-size="11" lengthAdjust="spacingAndGlyphs" textLength="55" x="231.5" y="270.5449">methodB()</text><!--class ConcreteDecoratorA--><rect fill="#FEFECE" filter="url(#fifrgsz9vig0w)" height="86.8652" id="ConcreteDecoratorA" style="stroke: #A80036; stroke-width: 1.5;" width="148" x="196" y="337"/><ellipse cx="211" cy="353" fill="#ADD1B2" rx="11" ry="11" style="stroke: #A80036; stroke-width: 1.0;"/><path d="M213.4731,359.1431 Q212.8921,359.4419 212.2529,359.5913 Q211.6138,359.7407 210.9082,359.7407 Q208.4014,359.7407 207.0815,358.0889 Q205.7617,356.437 205.7617,353.3159 Q205.7617,350.1865 207.0815,348.5347 Q208.4014,346.8828 210.9082,346.8828 Q211.6138,346.8828 212.2612,347.0322 Q212.9087,347.1816 213.4731,347.4805 L213.4731,350.2031 Q212.8423,349.6221 212.2488,349.3523 Q211.6553,349.0825 211.0244,349.0825 Q209.6797,349.0825 208.9949,350.1492 Q208.3101,351.2158 208.3101,353.3159 Q208.3101,355.4077 208.9949,356.4744 Q209.6797,357.541 211.0244,357.541 Q211.6553,357.541 212.2488,357.2712 Q212.8423,357.0015 213.4731,356.4204 Z "/><text fill="#000000" font-family="sans-serif" font-size="12" lengthAdjust="spacingAndGlyphs" textLength="116" x="225" y="357.5352">ConcreteDecoratorA</text><line style="stroke: #A80036; stroke-width: 1.5;" x1="197" x2="343" y1="369" y2="369"/><text fill="#000000" font-family="sans-serif" font-size="11" lengthAdjust="spacingAndGlyphs" textLength="132" x="202" y="383.6348">Component WrappedObj</text><line style="stroke: #A80036; stroke-width: 1.5;" x1="197" x2="343" y1="389.9551" y2="389.9551"/><text fill="#000000" font-family="sans-serif" font-size="11" lengthAdjust="spacingAndGlyphs" textLength="57" x="202" y="404.5898">methodA()</text><text fill="#000000" font-family="sans-serif" font-size="11" lengthAdjust="spacingAndGlyphs" textLength="55" x="202" y="417.5449">methodB()</text><!--class ConcreteDecoratorB--><rect fill="#FEFECE" filter="url(#fifrgsz9vig0w)" height="86.8652" id="ConcreteDecoratorB" style="stroke: #A80036; stroke-width: 1.5;" width="147" x="379.5" y="337"/><ellipse cx="394.5" cy="353" fill="#ADD1B2" rx="11" ry="11" style="stroke: #A80036; stroke-width: 1.0;"/><path d="M396.9731,359.1431 Q396.3921,359.4419 395.7529,359.5913 Q395.1138,359.7407 394.4082,359.7407 Q391.9014,359.7407 390.5815,358.0889 Q389.2617,356.437 389.2617,353.3159 Q389.2617,350.1865 390.5815,348.5347 Q391.9014,346.8828 394.4082,346.8828 Q395.1138,346.8828 395.7612,347.0322 Q396.4087,347.1816 396.9731,347.4805 L396.9731,350.2031 Q396.3423,349.6221 395.7488,349.3523 Q395.1553,349.0825 394.5244,349.0825 Q393.1797,349.0825 392.4949,350.1492 Q391.8101,351.2158 391.8101,353.3159 Q391.8101,355.4077 392.4949,356.4744 Q393.1797,357.541 394.5244,357.541 Q395.1553,357.541 395.7488,357.2712 Q396.3423,357.0015 396.9731,356.4204 Z "/><text fill="#000000" font-family="sans-serif" font-size="12" lengthAdjust="spacingAndGlyphs" textLength="115" x="408.5" y="357.5352">ConcreteDecoratorB</text><line style="stroke: #A80036; stroke-width: 1.5;" x1="380.5" x2="525.5" y1="369" y2="369"/><text fill="#000000" font-family="sans-serif" font-size="11" lengthAdjust="spacingAndGlyphs" textLength="132" x="385.5" y="383.6348">Component WrappedObj</text><line style="stroke: #A80036; stroke-width: 1.5;" x1="380.5" x2="525.5" y1="389.9551" y2="389.9551"/><text fill="#000000" font-family="sans-serif" font-size="11" lengthAdjust="spacingAndGlyphs" textLength="57" x="385.5" y="404.5898">methodA()</text><text fill="#000000" font-family="sans-serif" font-size="11" lengthAdjust="spacingAndGlyphs" textLength="55" x="385.5" y="417.5449">methodB()</text><!--link Component to ConcreteComponent--><path d="M104.3374,150.5308 C103.1596,163.8488 101.9446,177.5885 100.8503,189.9616 " fill="none" id="Component-ConcreteComponent" style="stroke: #A80036; stroke-width: 1.0;"/><polygon fill="none" points="97.4001,149.5124,106.1348,130.2068,111.3456,150.7458,97.4001,149.5124" style="stroke: #A80036; stroke-width: 1.0;"/><!--link Decorator to ConcreteDecoratorA--><path d="M270,297.5308 C270,310.8488 270,324.5885 270,336.9616 " fill="none" id="Decorator-ConcreteDecoratorA" style="stroke: #A80036; stroke-width: 1.0;"/><polygon fill="none" points="263.0001,297.2069,270,277.2068,277.0001,297.2068,263.0001,297.2069" style="stroke: #A80036; stroke-width: 1.0;"/><!--link Decorator to ConcreteDecoratorB--><path d="M330.5649,282.1505 C352.5253,299.7908 377.1803,319.5956 398.5788,336.7846 " fill="none" id="Decorator-ConcreteDecoratorB" style="stroke: #A80036; stroke-width: 1.0;"/><polygon fill="none" points="325.9755,287.4427,314.7668,269.4602,334.743,276.528,325.9755,287.4427" style="stroke: #A80036; stroke-width: 1.0;"/><!--link Component to Decorator--><path d="M174.5402,134.1044 C195.1255,151.9946 217.0651,172.2317 234.8501,189.7543 " fill="none" id="Component-Decorator" style="stroke: #A80036; stroke-width: 1.0;"/><polygon fill="none" points="169.817,139.2761,159.1538,120.965,178.9086,128.6298,169.817,139.2761" style="stroke: #A80036; stroke-width: 1.0;"/><!--link Decorator to Component--><path d="M225.4207,202.3237 C201.5087,182.4131 172.5447,156.2169 149.4562,133.7749 " fill="none" id="Decorator-Component" style="stroke: #A80036; stroke-width: 1.0;"/><polygon fill="#A80036" points="145.8028,130.2068,149.4465,139.3568,149.3798,133.7004,155.0363,133.6336,145.8028,130.2068" style="stroke: #A80036; stroke-width: 1.0;"/><!--
@startuml

package components <<rectangle>> 
{
    abstract Component
    {
        methodA()
        methodB()
        //其他方法
    }

    class ConcreteComponent
    {
        methodA()
        methodB()
        //其他方法
    }
}
Component <|- - ConcreteComponent

package decorators <<rectangle>>
{
    abstract Decorator
    {
        methodA()
        methodB()
        //其他方法
    }

    class ConcreteDecoratorA
    {
        methodA()
        methodB()
        Component WrappedObj
    }

    class ConcreteDecoratorB
    {
        methodA()
        methodB()
        Component WrappedObj
    }
}
Decorator <|- - ConcreteDecoratorA
Decorator <|- - ConcreteDecoratorB
Component <|- - Decorator
Decorator - -> Component
@enduml

PlantUML version 1.2019.06(Sat May 25 01:10:25 CST 2019)
(GPL source distribution)
Java Runtime: Java(TM) SE Runtime Environment
JVM: Java HotSpot(TM) 64-Bit Server VM
Java Version: 12.0.2+10
Operating System: Mac OS X
OS Version: 10.14.5
Default Encoding: UTF-8
Language: zh
Country: CN
--></g></svg>