<?xml version="1.0" encoding="UTF-8" standalone="no"?><svg xmlns="http://www.w3.org/2000/svg" xmlns:xlink="http://www.w3.org/1999/xlink" contentScriptType="application/ecmascript" contentStyleType="text/css" height="417px" preserveAspectRatio="none" style="width:1432px;height:417px;" version="1.1" viewBox="0 0 1432 417" width="1432px" zoomAndPan="magnify"><defs><filter height="300%" id="fqnai58fgxop4" width="300%" x="-1" y="-1"><feGaussianBlur result="blurOut" stdDeviation="2.0"/><feColorMatrix in="blurOut" result="blurOut2" type="matrix" values="0 0 0 0 0 0 0 0 0 0 0 0 0 0 0 0 0 0 .4 0"/><feOffset dx="4.0" dy="4.0" in="blurOut2" result="blurOut3"/><feBlend in="SourceGraphic" in2="blurOut3" mode="normal"/></filter></defs><g><!--cluster beverage--><rect fill="#FFFFFF" filter="url(#fqnai58fgxop4)" height="249.5" style="stroke: #000000; stroke-width: 1.5;" width="646" x="14" y="16"/><text fill="#000000" font-family="sans-serif" font-size="14" font-weight="bold" lengthAdjust="spacingAndGlyphs" textLength="64" x="305" y="31.5352">beverage</text><!--cluster condiments--><rect fill="#FFFFFF" filter="url(#fqnai58fgxop4)" height="243" style="stroke: #000000; stroke-width: 1.5;" width="753" x="668" y="163"/><text fill="#000000" font-family="sans-serif" font-size="14" font-weight="bold" lengthAdjust="spacingAndGlyphs" textLength="84" x="1002.5" y="178.5352">condiments</text><!--class Beverage--><rect fill="#FEFECE" filter="url(#fqnai58fgxop4)" height="86.8652" id="Beverage" style="stroke: #A80036; stroke-width: 1.5;" width="195" x="322.5" y="43"/><ellipse cx="389.25" cy="59" fill="#A9DCDF" rx="11" ry="11" style="stroke: #A80036; stroke-width: 1.0;"/><path d="M389.3633,54.5981 L388.2095,59.6699 L390.5254,59.6699 Z M387.8691,52.3569 L390.8657,52.3569 L394.2109,64.75 L391.7622,64.75 L390.9985,61.687 L387.7197,61.687 L386.9727,64.75 L384.5239,64.75 Z "/><text fill="#000000" font-family="sans-serif" font-size="12" font-style="italic" lengthAdjust="spacingAndGlyphs" textLength="53" x="409.75" y="63.5352">Beverage</text><line style="stroke: #A80036; stroke-width: 1.5;" x1="323.5" x2="516.5" y1="75" y2="75"/><text fill="#000000" font-family="sans-serif" font-size="11" lengthAdjust="spacingAndGlyphs" textLength="119" x="328.5" y="89.6348">std::string description</text><line style="stroke: #A80036; stroke-width: 1.5;" x1="323.5" x2="516.5" y1="95.9551" y2="95.9551"/><text fill="#000000" font-family="sans-serif" font-size="11" lengthAdjust="spacingAndGlyphs" textLength="183" x="328.5" y="110.5898">virtual std::string GetDescription()</text><text fill="#000000" font-family="sans-serif" font-size="11" lengthAdjust="spacingAndGlyphs" textLength="108" x="328.5" y="123.5449">virtual double cost()</text><!--class HouseBlend--><rect fill="#FEFECE" filter="url(#fqnai58fgxop4)" height="60.9551" id="HouseBlend" style="stroke: #A80036; stroke-width: 1.5;" width="131" x="22.5" y="196.5"/><ellipse cx="51.45" cy="212.5" fill="#ADD1B2" rx="11" ry="11" style="stroke: #A80036; stroke-width: 1.0;"/><path d="M53.9231,218.6431 Q53.3421,218.9419 52.7029,219.0913 Q52.0638,219.2407 51.3582,219.2407 Q48.8514,219.2407 47.5315,217.5889 Q46.2117,215.937 46.2117,212.8159 Q46.2117,209.6865 47.5315,208.0347 Q48.8514,206.3828 51.3582,206.3828 Q52.0638,206.3828 52.7112,206.5322 Q53.3587,206.6816 53.9231,206.9805 L53.9231,209.7031 Q53.2923,209.1221 52.6988,208.8523 Q52.1053,208.5825 51.4744,208.5825 Q50.1297,208.5825 49.4449,209.6492 Q48.7601,210.7158 48.7601,212.8159 Q48.7601,214.9077 49.4449,215.9744 Q50.1297,217.041 51.4744,217.041 Q52.1053,217.041 52.6988,216.7712 Q53.2923,216.5015 53.9231,215.9204 Z "/><text fill="#000000" font-family="sans-serif" font-size="12" lengthAdjust="spacingAndGlyphs" textLength="68" x="68.55" y="217.0352">HouseBlend</text><line style="stroke: #A80036; stroke-width: 1.5;" x1="23.5" x2="152.5" y1="228.5" y2="228.5"/><line style="stroke: #A80036; stroke-width: 1.5;" x1="23.5" x2="152.5" y1="236.5" y2="236.5"/><text fill="#000000" font-family="sans-serif" font-size="11" lengthAdjust="spacingAndGlyphs" textLength="119" x="28.5" y="251.1348">double cost() override</text><!--class DarkRoast--><rect fill="#FEFECE" filter="url(#fqnai58fgxop4)" height="60.9551" id="DarkRoast" style="stroke: #A80036; stroke-width: 1.5;" width="131" x="188.5" y="196.5"/><ellipse cx="221.05" cy="212.5" fill="#ADD1B2" rx="11" ry="11" style="stroke: #A80036; stroke-width: 1.0;"/><path d="M223.5231,218.6431 Q222.9421,218.9419 222.3029,219.0913 Q221.6638,219.2407 220.9582,219.2407 Q218.4514,219.2407 217.1315,217.5889 Q215.8117,215.937 215.8117,212.8159 Q215.8117,209.6865 217.1315,208.0347 Q218.4514,206.3828 220.9582,206.3828 Q221.6638,206.3828 222.3112,206.5322 Q222.9587,206.6816 223.5231,206.9805 L223.5231,209.7031 Q222.8923,209.1221 222.2988,208.8523 Q221.7053,208.5825 221.0744,208.5825 Q219.7297,208.5825 219.0449,209.6492 Q218.3601,210.7158 218.3601,212.8159 Q218.3601,214.9077 219.0449,215.9744 Q219.7297,217.041 221.0744,217.041 Q221.7053,217.041 222.2988,216.7712 Q222.8923,216.5015 223.5231,215.9204 Z "/><text fill="#000000" font-family="sans-serif" font-size="12" lengthAdjust="spacingAndGlyphs" textLength="60" x="238.95" y="217.0352">DarkRoast</text><line style="stroke: #A80036; stroke-width: 1.5;" x1="189.5" x2="318.5" y1="228.5" y2="228.5"/><line style="stroke: #A80036; stroke-width: 1.5;" x1="189.5" x2="318.5" y1="236.5" y2="236.5"/><text fill="#000000" font-family="sans-serif" font-size="11" lengthAdjust="spacingAndGlyphs" textLength="119" x="194.5" y="251.1348">double cost() override</text><!--class Espresso--><rect fill="#FEFECE" filter="url(#fqnai58fgxop4)" height="60.9551" id="Espresso" style="stroke: #A80036; stroke-width: 1.5;" width="131" x="354.5" y="196.5"/><ellipse cx="390.65" cy="212.5" fill="#ADD1B2" rx="11" ry="11" style="stroke: #A80036; stroke-width: 1.0;"/><path d="M393.1231,218.6431 Q392.5421,218.9419 391.9029,219.0913 Q391.2638,219.2407 390.5582,219.2407 Q388.0514,219.2407 386.7315,217.5889 Q385.4117,215.937 385.4117,212.8159 Q385.4117,209.6865 386.7315,208.0347 Q388.0514,206.3828 390.5582,206.3828 Q391.2638,206.3828 391.9112,206.5322 Q392.5587,206.6816 393.1231,206.9805 L393.1231,209.7031 Q392.4923,209.1221 391.8988,208.8523 Q391.3053,208.5825 390.6744,208.5825 Q389.3297,208.5825 388.6449,209.6492 Q387.9601,210.7158 387.9601,212.8159 Q387.9601,214.9077 388.6449,215.9744 Q389.3297,217.041 390.6744,217.041 Q391.3053,217.041 391.8988,216.7712 Q392.4923,216.5015 393.1231,215.9204 Z "/><text fill="#000000" font-family="sans-serif" font-size="12" lengthAdjust="spacingAndGlyphs" textLength="52" x="409.35" y="217.0352">Espresso</text><line style="stroke: #A80036; stroke-width: 1.5;" x1="355.5" x2="484.5" y1="228.5" y2="228.5"/><line style="stroke: #A80036; stroke-width: 1.5;" x1="355.5" x2="484.5" y1="236.5" y2="236.5"/><text fill="#000000" font-family="sans-serif" font-size="11" lengthAdjust="spacingAndGlyphs" textLength="119" x="360.5" y="251.1348">double cost() override</text><!--class Decaf--><rect fill="#FEFECE" filter="url(#fqnai58fgxop4)" height="60.9551" id="Decaf" style="stroke: #A80036; stroke-width: 1.5;" width="131" x="520.5" y="196.5"/><ellipse cx="565.25" cy="212.5" fill="#ADD1B2" rx="11" ry="11" style="stroke: #A80036; stroke-width: 1.0;"/><path d="M567.7231,218.6431 Q567.1421,218.9419 566.5029,219.0913 Q565.8638,219.2407 565.1582,219.2407 Q562.6514,219.2407 561.3315,217.5889 Q560.0117,215.937 560.0117,212.8159 Q560.0117,209.6865 561.3315,208.0347 Q562.6514,206.3828 565.1582,206.3828 Q565.8638,206.3828 566.5112,206.5322 Q567.1587,206.6816 567.7231,206.9805 L567.7231,209.7031 Q567.0923,209.1221 566.4988,208.8523 Q565.9053,208.5825 565.2744,208.5825 Q563.9297,208.5825 563.2449,209.6492 Q562.5601,210.7158 562.5601,212.8159 Q562.5601,214.9077 563.2449,215.9744 Q563.9297,217.041 565.2744,217.041 Q565.9053,217.041 566.4988,216.7712 Q567.0923,216.5015 567.7231,215.9204 Z "/><text fill="#000000" font-family="sans-serif" font-size="12" lengthAdjust="spacingAndGlyphs" textLength="33" x="585.75" y="217.0352">Decaf</text><line style="stroke: #A80036; stroke-width: 1.5;" x1="521.5" x2="650.5" y1="228.5" y2="228.5"/><line style="stroke: #A80036; stroke-width: 1.5;" x1="521.5" x2="650.5" y1="236.5" y2="236.5"/><text fill="#000000" font-family="sans-serif" font-size="11" lengthAdjust="spacingAndGlyphs" textLength="119" x="526.5" y="251.1348">double cost() override</text><!--class CondimentDecorator--><rect fill="#FEFECE" filter="url(#fqnai58fgxop4)" height="73.9102" id="CondimentDecorator" style="stroke: #A80036; stroke-width: 1.5;" width="195" x="850.5" y="190"/><ellipse cx="885.3" cy="206" fill="#A9DCDF" rx="11" ry="11" style="stroke: #A80036; stroke-width: 1.0;"/><path d="M885.4133,201.5981 L884.2595,206.6699 L886.5754,206.6699 Z M883.9191,199.3569 L886.9157,199.3569 L890.2609,211.75 L887.8122,211.75 L887.0485,208.687 L883.7697,208.687 L883.0227,211.75 L880.5739,211.75 Z "/><text fill="#000000" font-family="sans-serif" font-size="12" font-style="italic" lengthAdjust="spacingAndGlyphs" textLength="119" x="903.7" y="210.5352">CondimentDecorator</text><line style="stroke: #A80036; stroke-width: 1.5;" x1="851.5" x2="1044.5" y1="222" y2="222"/><text fill="#000000" font-family="sans-serif" font-size="11" lengthAdjust="spacingAndGlyphs" textLength="105" x="856.5" y="236.6348">Beverage *beverage</text><line style="stroke: #A80036; stroke-width: 1.5;" x1="851.5" x2="1044.5" y1="242.9551" y2="242.9551"/><text fill="#000000" font-family="sans-serif" font-size="11" lengthAdjust="spacingAndGlyphs" textLength="183" x="856.5" y="257.5898">virtual std::string GetDescription()</text><!--class Milk--><rect fill="#FEFECE" filter="url(#fqnai58fgxop4)" height="73.9102" id="Milk" style="stroke: #A80036; stroke-width: 1.5;" width="158" x="676" y="324"/><ellipse cx="739.25" cy="340" fill="#ADD1B2" rx="11" ry="11" style="stroke: #A80036; stroke-width: 1.0;"/><path d="M741.7231,346.1431 Q741.1421,346.4419 740.5029,346.5913 Q739.8638,346.7407 739.1582,346.7407 Q736.6514,346.7407 735.3315,345.0889 Q734.0117,343.437 734.0117,340.3159 Q734.0117,337.1865 735.3315,335.5347 Q736.6514,333.8828 739.1582,333.8828 Q739.8638,333.8828 740.5112,334.0322 Q741.1587,334.1816 741.7231,334.4805 L741.7231,337.2031 Q741.0923,336.6221 740.4988,336.3523 Q739.9053,336.0825 739.2744,336.0825 Q737.9297,336.0825 737.2449,337.1492 Q736.5601,338.2158 736.5601,340.3159 Q736.5601,342.4077 737.2449,343.4744 Q737.9297,344.541 739.2744,344.541 Q739.9053,344.541 740.4988,344.2712 Q741.0923,344.0015 741.7231,343.4204 Z "/><text fill="#000000" font-family="sans-serif" font-size="12" lengthAdjust="spacingAndGlyphs" textLength="23" x="759.75" y="344.5352">Milk</text><line style="stroke: #A80036; stroke-width: 1.5;" x1="677" x2="833" y1="356" y2="356"/><line style="stroke: #A80036; stroke-width: 1.5;" x1="677" x2="833" y1="364" y2="364"/><text fill="#000000" font-family="sans-serif" font-size="11" lengthAdjust="spacingAndGlyphs" textLength="146" x="682" y="378.6348">std::string GetDescription()</text><text fill="#000000" font-family="sans-serif" font-size="11" lengthAdjust="spacingAndGlyphs" textLength="71" x="682" y="391.5898">double cost()</text><!--class Mocha--><rect fill="#FEFECE" filter="url(#fqnai58fgxop4)" height="73.9102" id="Mocha" style="stroke: #A80036; stroke-width: 1.5;" width="158" x="869" y="324"/><ellipse cx="925.25" cy="340" fill="#ADD1B2" rx="11" ry="11" style="stroke: #A80036; stroke-width: 1.0;"/><path d="M927.7231,346.1431 Q927.1421,346.4419 926.5029,346.5913 Q925.8638,346.7407 925.1582,346.7407 Q922.6514,346.7407 921.3315,345.0889 Q920.0117,343.437 920.0117,340.3159 Q920.0117,337.1865 921.3315,335.5347 Q922.6514,333.8828 925.1582,333.8828 Q925.8638,333.8828 926.5112,334.0322 Q927.1587,334.1816 927.7231,334.4805 L927.7231,337.2031 Q927.0923,336.6221 926.4988,336.3523 Q925.9053,336.0825 925.2744,336.0825 Q923.9297,336.0825 923.2449,337.1492 Q922.5601,338.2158 922.5601,340.3159 Q922.5601,342.4077 923.2449,343.4744 Q923.9297,344.541 925.2744,344.541 Q925.9053,344.541 926.4988,344.2712 Q927.0923,344.0015 927.7231,343.4204 Z "/><text fill="#000000" font-family="sans-serif" font-size="12" lengthAdjust="spacingAndGlyphs" textLength="37" x="945.75" y="344.5352">Mocha</text><line style="stroke: #A80036; stroke-width: 1.5;" x1="870" x2="1026" y1="356" y2="356"/><line style="stroke: #A80036; stroke-width: 1.5;" x1="870" x2="1026" y1="364" y2="364"/><text fill="#000000" font-family="sans-serif" font-size="11" lengthAdjust="spacingAndGlyphs" textLength="146" x="875" y="378.6348">std::string GetDescription()</text><text fill="#000000" font-family="sans-serif" font-size="11" lengthAdjust="spacingAndGlyphs" textLength="71" x="875" y="391.5898">double cost()</text><!--class Soy--><rect fill="#FEFECE" filter="url(#fqnai58fgxop4)" height="73.9102" id="Soy" style="stroke: #A80036; stroke-width: 1.5;" width="158" x="1062" y="324"/><ellipse cx="1127.25" cy="340" fill="#ADD1B2" rx="11" ry="11" style="stroke: #A80036; stroke-width: 1.0;"/><path d="M1129.7231,346.1431 Q1129.1421,346.4419 1128.5029,346.5913 Q1127.8638,346.7407 1127.1582,346.7407 Q1124.6514,346.7407 1123.3315,345.0889 Q1122.0117,343.437 1122.0117,340.3159 Q1122.0117,337.1865 1123.3315,335.5347 Q1124.6514,333.8828 1127.1582,333.8828 Q1127.8638,333.8828 1128.5112,334.0322 Q1129.1587,334.1816 1129.7231,334.4805 L1129.7231,337.2031 Q1129.0923,336.6221 1128.4988,336.3523 Q1127.9053,336.0825 1127.2744,336.0825 Q1125.9297,336.0825 1125.2449,337.1492 Q1124.5601,338.2158 1124.5601,340.3159 Q1124.5601,342.4077 1125.2449,343.4744 Q1125.9297,344.541 1127.2744,344.541 Q1127.9053,344.541 1128.4988,344.2712 Q1129.0923,344.0015 1129.7231,343.4204 Z "/><text fill="#000000" font-family="sans-serif" font-size="12" lengthAdjust="spacingAndGlyphs" textLength="19" x="1147.75" y="344.5352">Soy</text><line style="stroke: #A80036; stroke-width: 1.5;" x1="1063" x2="1219" y1="356" y2="356"/><line style="stroke: #A80036; stroke-width: 1.5;" x1="1063" x2="1219" y1="364" y2="364"/><text fill="#000000" font-family="sans-serif" font-size="11" lengthAdjust="spacingAndGlyphs" textLength="146" x="1068" y="378.6348">std::string GetDescription()</text><text fill="#000000" font-family="sans-serif" font-size="11" lengthAdjust="spacingAndGlyphs" textLength="71" x="1068" y="391.5898">double cost()</text><!--class Whip--><rect fill="#FEFECE" filter="url(#fqnai58fgxop4)" height="73.9102" id="Whip" style="stroke: #A80036; stroke-width: 1.5;" width="158" x="1255" y="324"/><ellipse cx="1315.75" cy="340" fill="#ADD1B2" rx="11" ry="11" style="stroke: #A80036; stroke-width: 1.0;"/><path d="M1318.2231,346.1431 Q1317.6421,346.4419 1317.0029,346.5913 Q1316.3638,346.7407 1315.6582,346.7407 Q1313.1514,346.7407 1311.8315,345.0889 Q1310.5117,343.437 1310.5117,340.3159 Q1310.5117,337.1865 1311.8315,335.5347 Q1313.1514,333.8828 1315.6582,333.8828 Q1316.3638,333.8828 1317.0112,334.0322 Q1317.6587,334.1816 1318.2231,334.4805 L1318.2231,337.2031 Q1317.5923,336.6221 1316.9988,336.3523 Q1316.4053,336.0825 1315.7744,336.0825 Q1314.4297,336.0825 1313.7449,337.1492 Q1313.0601,338.2158 1313.0601,340.3159 Q1313.0601,342.4077 1313.7449,343.4744 Q1314.4297,344.541 1315.7744,344.541 Q1316.4053,344.541 1316.9988,344.2712 Q1317.5923,344.0015 1318.2231,343.4204 Z "/><text fill="#000000" font-family="sans-serif" font-size="12" lengthAdjust="spacingAndGlyphs" textLength="28" x="1336.25" y="344.5352">Whip</text><line style="stroke: #A80036; stroke-width: 1.5;" x1="1256" x2="1412" y1="356" y2="356"/><line style="stroke: #A80036; stroke-width: 1.5;" x1="1256" x2="1412" y1="364" y2="364"/><text fill="#000000" font-family="sans-serif" font-size="11" lengthAdjust="spacingAndGlyphs" textLength="146" x="1261" y="378.6348">std::string GetDescription()</text><text fill="#000000" font-family="sans-serif" font-size="11" lengthAdjust="spacingAndGlyphs" textLength="71" x="1261" y="391.5898">double cost()</text><!--link Beverage to HouseBlend--><path d="M302.6881,113.1969 C259.9118,125.3211 212.0082,141.7825 171,163 C153.7077,171.947 136.3707,184.5955 122.0474,196.2883 " fill="none" id="Beverage-HouseBlend" style="stroke: #A80036; stroke-width: 1.0;"/><polygon fill="none" points="301.1194,106.3689,322.2576,107.8457,304.8122,119.8731,301.1194,106.3689" style="stroke: #A80036; stroke-width: 1.0;"/><!--link Beverage to DarkRoast--><path d="M353.0573,143.1594 C331.5213,161.3871 308.4858,180.884 290.0531,196.4852 " fill="none" id="Beverage-DarkRoast" style="stroke: #A80036; stroke-width: 1.0;"/><polygon fill="none" points="348.5982,137.7628,368.3865,130.1849,357.6428,148.449,348.5982,137.7628" style="stroke: #A80036; stroke-width: 1.0;"/><!--link Beverage to Espresso--><path d="M420,150.3028 C420,166.2919 420,182.7302 420,196.2671 " fill="none" id="Beverage-Espresso" style="stroke: #A80036; stroke-width: 1.0;"/><polygon fill="none" points="413.0001,150.1849,420,130.1849,427.0001,150.1849,413.0001,150.1849" style="stroke: #A80036; stroke-width: 1.0;"/><!--link Beverage to Decaf--><path d="M486.9427,143.1594 C508.4787,161.3871 531.5142,180.884 549.9469,196.4852 " fill="none" id="Beverage-Decaf" style="stroke: #A80036; stroke-width: 1.0;"/><polygon fill="none" points="482.3572,148.449,471.6135,130.1849,491.4018,137.7628,482.3572,148.449" style="stroke: #A80036; stroke-width: 1.0;"/><!--link CondimentDecorator to Milk--><path d="M877.9203,275.6563 C855.0619,291.527 830.0605,308.8855 808.609,323.7792 " fill="none" id="CondimentDecorator-Milk" style="stroke: #A80036; stroke-width: 1.0;"/><polygon fill="none" points="874.0743,269.8049,894.495,264.1485,882.0587,281.3049,874.0743,269.8049" style="stroke: #A80036; stroke-width: 1.0;"/><!--link CondimentDecorator to Mocha--><path d="M948,284.5351 C948,297.8601 948,311.6949 948,323.8737 " fill="none" id="CondimentDecorator-Mocha" style="stroke: #A80036; stroke-width: 1.0;"/><polygon fill="none" points="941.0001,284.3265,948,264.3265,955.0001,284.3264,941.0001,284.3265" style="stroke: #A80036; stroke-width: 1.0;"/><!--link CondimentDecorator to Soy--><path d="M1018.0797,275.6563 C1040.9381,291.527 1065.9395,308.8855 1087.391,323.7792 " fill="none" id="CondimentDecorator-Soy" style="stroke: #A80036; stroke-width: 1.0;"/><polygon fill="none" points="1013.9413,281.3049,1001.505,264.1485,1021.9257,269.8049,1013.9413,281.3049" style="stroke: #A80036; stroke-width: 1.0;"/><!--link CondimentDecorator to Whip--><path d="M1064.7525,264.7208 C1117.8127,282.2048 1181.274,303.5932 1238,324 C1243.4623,325.965 1249.085,328.0275 1254.7393,330.1309 " fill="none" id="CondimentDecorator-Whip" style="stroke: #A80036; stroke-width: 1.0;"/><polygon fill="none" points="1062.5233,271.3566,1045.7064,258.465,1066.8921,258.0556,1062.5233,271.3566" style="stroke: #A80036; stroke-width: 1.0;"/><!--link Beverage to CondimentDecorator--><path d="M537.0302,114.6969 C631.1768,138.8945 761.7306,173.6259 850.3391,198.0414 " fill="none" id="Beverage-CondimentDecorator" style="stroke: #A80036; stroke-width: 1.0;"/><polygon fill="none" points="535.1592,121.4437,517.5211,109.7007,538.6325,107.8814,535.1592,121.4437" style="stroke: #A80036; stroke-width: 1.0;"/><!--link CondimentDecorator to Beverage--><path d="M850.3372,203.6163 C757.1214,179.7759 617.4692,142.6946 522.6465,116.6581 " fill="none" id="CondimentDecorator-Beverage" style="stroke: #A80036; stroke-width: 1.0;"/><polygon fill="#A80036" points="517.6002,115.2713,525.2185,121.5133,522.4214,116.5963,527.3384,113.7993,517.6002,115.2713" style="stroke: #A80036; stroke-width: 1.0;"/><!--
@startuml

package beverage <<rectangle>>
{
    abstract class Beverage
    {
        std::string description
        virtual std::string GetDescription()
        virtual double cost()
    }

    class HouseBlend
    {
        double cost() override
    }

    class DarkRoast
    {
        double cost() override
    }

    class Espresso
    {
        double cost() override
    }

    class Decaf 
    {
        double cost() override
    }
}
Beverage <|- - HouseBlend
Beverage <|- - DarkRoast
Beverage <|- - Espresso
Beverage <|- - Decaf


package condiments <<rectangle>>
{
    abstract class CondimentDecorator
    {
        Beverage *beverage
        virtual std::string GetDescription()
    }

    class Milk
    {
        std::string GetDescription()
        double cost()
    }

    class Mocha
    {
        std::string GetDescription()
        double cost()
    }

    class Soy
    {
        std::string GetDescription()
        double cost()
    }

    class Whip
    {
        std::string GetDescription()
        double cost()
    }
}

CondimentDecorator <|- - Milk
CondimentDecorator <|- - Mocha
CondimentDecorator <|- - Soy
CondimentDecorator <|- - Whip

Beverage <|- - CondimentDecorator
CondimentDecorator - -> Beverage
@enduml

PlantUML version 1.2019.06(Sat May 25 01:10:25 CST 2019)
(GPL source distribution)
Java Runtime: Java(TM) SE Runtime Environment
JVM: Java HotSpot(TM) 64-Bit Server VM
Java Version: 12.0.2+10
Operating System: Mac OS X
OS Version: 10.14.5
Default Encoding: UTF-8
Language: zh
Country: CN
--></g></svg>