<?xml version="1.0" encoding="UTF-8" standalone="no"?><svg xmlns="http://www.w3.org/2000/svg" xmlns:xlink="http://www.w3.org/1999/xlink" contentScriptType="application/ecmascript" contentStyleType="text/css" height="430px" preserveAspectRatio="none" style="width:1305px;height:430px;" version="1.1" viewBox="0 0 1305 430" width="1305px" zoomAndPan="magnify"><defs><filter height="300%" id="f15zgtzd23thd6" width="300%" x="-1" y="-1"><feGaussianBlur result="blurOut" stdDeviation="2.0"/><feColorMatrix in="blurOut" result="blurOut2" type="matrix" values="0 0 0 0 0 0 0 0 0 0 0 0 0 0 0 0 0 0 .4 0"/><feOffset dx="4.0" dy="4.0" in="blurOut2" result="blurOut3"/><feBlend in="SourceGraphic" in2="blurOut3" mode="normal"/></filter></defs><g><!--cluster FlyBehaviors--><rect fill="#FFFFFF" filter="url(#f15zgtzd23thd6)" height="217" style="stroke: #000000; stroke-width: 1.5;" width="494" x="275" y="202"/><text fill="#000000" font-family="sans-serif" font-size="14" font-weight="bold" lengthAdjust="spacingAndGlyphs" textLength="91" x="476.5" y="217.5352">FlyBehaviors</text><!--cluster QuackBehaviors--><rect fill="#FFFFFF" filter="url(#f15zgtzd23thd6)" height="217" style="stroke: #000000; stroke-width: 1.5;" width="506" x="788" y="202"/><text fill="#000000" font-family="sans-serif" font-size="14" font-weight="bold" lengthAdjust="spacingAndGlyphs" textLength="115" x="983.5" y="217.5352">QuackBehaviors</text><!--cluster Ducks--><rect fill="#FFFFFF" filter="url(#f15zgtzd23thd6)" height="282" style="stroke: #000000; stroke-width: 1.5;" width="253" x="14" y="16"/><text fill="#000000" font-family="sans-serif" font-size="14" font-weight="bold" lengthAdjust="spacingAndGlyphs" textLength="44" x="118.5" y="31.5352">Ducks</text><!--class FlyBehavior--><rect fill="#FEFECE" filter="url(#f15zgtzd23thd6)" height="60.9551" id="FlyBehavior" style="stroke: #A80036; stroke-width: 1.5;" width="96" x="390" y="229"/><ellipse cx="405" cy="245" fill="#B4A7E5" rx="11" ry="11" style="stroke: #A80036; stroke-width: 1.0;"/><path d="M401.4277,241.2651 L401.4277,239.1069 L408.8071,239.1069 L408.8071,241.2651 L406.3418,241.2651 L406.3418,249.3418 L408.8071,249.3418 L408.8071,251.5 L401.4277,251.5 L401.4277,249.3418 L403.8931,249.3418 L403.8931,241.2651 Z "/><text fill="#000000" font-family="sans-serif" font-size="12" font-style="italic" lengthAdjust="spacingAndGlyphs" textLength="64" x="419" y="249.5352">FlyBehavior</text><line style="stroke: #A80036; stroke-width: 1.5;" x1="391" x2="485" y1="261" y2="261"/><line style="stroke: #A80036; stroke-width: 1.5;" x1="391" x2="485" y1="269" y2="269"/><ellipse cx="401" cy="280.9775" fill="#84BE84" rx="3" ry="3" style="stroke: #038048; stroke-width: 1.0;"/><text fill="#000000" font-family="sans-serif" font-size="11" lengthAdjust="spacingAndGlyphs" textLength="47" x="410" y="283.6348">void fly()</text><!--class FlyWithWings--><rect fill="#FEFECE" filter="url(#f15zgtzd23thd6)" height="60.9551" id="FlyWithWings" style="stroke: #A80036; stroke-width: 1.5;" width="143" x="283.5" y="350"/><ellipse cx="316.05" cy="366" fill="#ADD1B2" rx="11" ry="11" style="stroke: #A80036; stroke-width: 1.0;"/><path d="M318.5231,372.1431 Q317.9421,372.4419 317.3029,372.5913 Q316.6638,372.7407 315.9582,372.7407 Q313.4514,372.7407 312.1315,371.0889 Q310.8117,369.437 310.8117,366.3159 Q310.8117,363.1865 312.1315,361.5347 Q313.4514,359.8828 315.9582,359.8828 Q316.6638,359.8828 317.3112,360.0322 Q317.9587,360.1816 318.5231,360.4805 L318.5231,363.2031 Q317.8923,362.6221 317.2988,362.3523 Q316.7053,362.0825 316.0744,362.0825 Q314.7297,362.0825 314.0449,363.1492 Q313.3601,364.2158 313.3601,366.3159 Q313.3601,368.4077 314.0449,369.4744 Q314.7297,370.541 316.0744,370.541 Q316.7053,370.541 317.2988,370.2712 Q317.8923,370.0015 318.5231,369.4204 Z "/><text fill="#000000" font-family="sans-serif" font-size="12" lengthAdjust="spacingAndGlyphs" textLength="72" x="333.95" y="370.5352">FlyWithWings</text><line style="stroke: #A80036; stroke-width: 1.5;" x1="284.5" x2="425.5" y1="382" y2="382"/><line style="stroke: #A80036; stroke-width: 1.5;" x1="284.5" x2="425.5" y1="390" y2="390"/><ellipse cx="294.5" cy="401.9775" fill="#84BE84" rx="3" ry="3" style="stroke: #038048; stroke-width: 1.0;"/><text fill="#000000" font-family="sans-serif" font-size="11" lengthAdjust="spacingAndGlyphs" textLength="117" x="303.5" y="404.6348">void fly() //带着翅膀飞</text><!--class FlyNoWay--><rect fill="#FEFECE" filter="url(#f15zgtzd23thd6)" height="60.9551" id="FlyNoWay" style="stroke: #A80036; stroke-width: 1.5;" width="121" x="461.5" y="350"/><ellipse cx="492.25" cy="366" fill="#ADD1B2" rx="11" ry="11" style="stroke: #A80036; stroke-width: 1.0;"/><path d="M494.7231,372.1431 Q494.1421,372.4419 493.5029,372.5913 Q492.8638,372.7407 492.1582,372.7407 Q489.6514,372.7407 488.3315,371.0889 Q487.0117,369.437 487.0117,366.3159 Q487.0117,363.1865 488.3315,361.5347 Q489.6514,359.8828 492.1582,359.8828 Q492.8638,359.8828 493.5112,360.0322 Q494.1587,360.1816 494.7231,360.4805 L494.7231,363.2031 Q494.0923,362.6221 493.4988,362.3523 Q492.9053,362.0825 492.2744,362.0825 Q490.9297,362.0825 490.2449,363.1492 Q489.5601,364.2158 489.5601,366.3159 Q489.5601,368.4077 490.2449,369.4744 Q490.9297,370.541 492.2744,370.541 Q492.9053,370.541 493.4988,370.2712 Q494.0923,370.0015 494.7231,369.4204 Z "/><text fill="#000000" font-family="sans-serif" font-size="12" lengthAdjust="spacingAndGlyphs" textLength="54" x="509.75" y="370.5352">FlyNoWay</text><line style="stroke: #A80036; stroke-width: 1.5;" x1="462.5" x2="581.5" y1="382" y2="382"/><line style="stroke: #A80036; stroke-width: 1.5;" x1="462.5" x2="581.5" y1="390" y2="390"/><ellipse cx="472.5" cy="401.9775" fill="#84BE84" rx="3" ry="3" style="stroke: #038048; stroke-width: 1.0;"/><text fill="#000000" font-family="sans-serif" font-size="11" lengthAdjust="spacingAndGlyphs" textLength="95" x="481.5" y="404.6348">void fly() //不会飞</text><!--class FlyWithRocket--><rect fill="#FEFECE" filter="url(#f15zgtzd23thd6)" height="60.9551" id="FlyWithRocket" style="stroke: #A80036; stroke-width: 1.5;" width="143" x="617.5" y="350"/><ellipse cx="647.35" cy="366" fill="#ADD1B2" rx="11" ry="11" style="stroke: #A80036; stroke-width: 1.0;"/><path d="M649.8231,372.1431 Q649.2421,372.4419 648.6029,372.5913 Q647.9638,372.7407 647.2582,372.7407 Q644.7514,372.7407 643.4315,371.0889 Q642.1117,369.437 642.1117,366.3159 Q642.1117,363.1865 643.4315,361.5347 Q644.7514,359.8828 647.2582,359.8828 Q647.9638,359.8828 648.6112,360.0322 Q649.2587,360.1816 649.8231,360.4805 L649.8231,363.2031 Q649.1923,362.6221 648.5988,362.3523 Q648.0053,362.0825 647.3744,362.0825 Q646.0297,362.0825 645.3449,363.1492 Q644.6601,364.2158 644.6601,366.3159 Q644.6601,368.4077 645.3449,369.4744 Q646.0297,370.541 647.3744,370.541 Q648.0053,370.541 648.5988,370.2712 Q649.1923,370.0015 649.8231,369.4204 Z "/><text fill="#000000" font-family="sans-serif" font-size="12" lengthAdjust="spacingAndGlyphs" textLength="78" x="664.65" y="370.5352">FlyWithRocket</text><line style="stroke: #A80036; stroke-width: 1.5;" x1="618.5" x2="759.5" y1="382" y2="382"/><line style="stroke: #A80036; stroke-width: 1.5;" x1="618.5" x2="759.5" y1="390" y2="390"/><ellipse cx="628.5" cy="401.9775" fill="#84BE84" rx="3" ry="3" style="stroke: #038048; stroke-width: 1.0;"/><text fill="#000000" font-family="sans-serif" font-size="11" lengthAdjust="spacingAndGlyphs" textLength="117" x="637.5" y="404.6348">void fly() //坐着火箭飞</text><!--class QuackBehavior--><rect fill="#FEFECE" filter="url(#f15zgtzd23thd6)" height="60.9551" id="QuackBehavior" style="stroke: #A80036; stroke-width: 1.5;" width="117" x="894.5" y="229"/><ellipse cx="909.5" cy="245" fill="#B4A7E5" rx="11" ry="11" style="stroke: #A80036; stroke-width: 1.0;"/><path d="M905.9277,241.2651 L905.9277,239.1069 L913.3071,239.1069 L913.3071,241.2651 L910.8418,241.2651 L910.8418,249.3418 L913.3071,249.3418 L913.3071,251.5 L905.9277,251.5 L905.9277,249.3418 L908.3931,249.3418 L908.3931,241.2651 Z "/><text fill="#000000" font-family="sans-serif" font-size="12" font-style="italic" lengthAdjust="spacingAndGlyphs" textLength="85" x="923.5" y="249.5352">QuackBehavior</text><line style="stroke: #A80036; stroke-width: 1.5;" x1="895.5" x2="1010.5" y1="261" y2="261"/><line style="stroke: #A80036; stroke-width: 1.5;" x1="895.5" x2="1010.5" y1="269" y2="269"/><ellipse cx="905.5" cy="280.9775" fill="#84BE84" rx="3" ry="3" style="stroke: #038048; stroke-width: 1.0;"/><text fill="#000000" font-family="sans-serif" font-size="11" lengthAdjust="spacingAndGlyphs" textLength="66" x="914.5" y="283.6348">void quack()</text><!--class Quack--><rect fill="#FEFECE" filter="url(#f15zgtzd23thd6)" height="60.9551" id="Quack" style="stroke: #A80036; stroke-width: 1.5;" width="140" x="796" y="350"/><ellipse cx="843.75" cy="366" fill="#ADD1B2" rx="11" ry="11" style="stroke: #A80036; stroke-width: 1.0;"/><path d="M846.2231,372.1431 Q845.6421,372.4419 845.0029,372.5913 Q844.3638,372.7407 843.6582,372.7407 Q841.1514,372.7407 839.8315,371.0889 Q838.5117,369.437 838.5117,366.3159 Q838.5117,363.1865 839.8315,361.5347 Q841.1514,359.8828 843.6582,359.8828 Q844.3638,359.8828 845.0112,360.0322 Q845.6587,360.1816 846.2231,360.4805 L846.2231,363.2031 Q845.5923,362.6221 844.9988,362.3523 Q844.4053,362.0825 843.7744,362.0825 Q842.4297,362.0825 841.7449,363.1492 Q841.0601,364.2158 841.0601,366.3159 Q841.0601,368.4077 841.7449,369.4744 Q842.4297,370.541 843.7744,370.541 Q844.4053,370.541 844.9988,370.2712 Q845.5923,370.0015 846.2231,369.4204 Z "/><text fill="#000000" font-family="sans-serif" font-size="12" lengthAdjust="spacingAndGlyphs" textLength="36" x="864.25" y="370.5352">Quack</text><line style="stroke: #A80036; stroke-width: 1.5;" x1="797" x2="935" y1="382" y2="382"/><line style="stroke: #A80036; stroke-width: 1.5;" x1="797" x2="935" y1="390" y2="390"/><ellipse cx="807" cy="401.9775" fill="#84BE84" rx="3" ry="3" style="stroke: #038048; stroke-width: 1.0;"/><text fill="#000000" font-family="sans-serif" font-size="11" lengthAdjust="spacingAndGlyphs" textLength="114" x="816" y="404.6348">void quack() //呱呱叫</text><!--class Squeak--><rect fill="#FEFECE" filter="url(#f15zgtzd23thd6)" height="60.9551" id="Squeak" style="stroke: #A80036; stroke-width: 1.5;" width="140" x="971" y="350"/><ellipse cx="1015.75" cy="366" fill="#ADD1B2" rx="11" ry="11" style="stroke: #A80036; stroke-width: 1.0;"/><path d="M1018.2231,372.1431 Q1017.6421,372.4419 1017.0029,372.5913 Q1016.3638,372.7407 1015.6582,372.7407 Q1013.1514,372.7407 1011.8315,371.0889 Q1010.5117,369.437 1010.5117,366.3159 Q1010.5117,363.1865 1011.8315,361.5347 Q1013.1514,359.8828 1015.6582,359.8828 Q1016.3638,359.8828 1017.0112,360.0322 Q1017.6587,360.1816 1018.2231,360.4805 L1018.2231,363.2031 Q1017.5923,362.6221 1016.9988,362.3523 Q1016.4053,362.0825 1015.7744,362.0825 Q1014.4297,362.0825 1013.7449,363.1492 Q1013.0601,364.2158 1013.0601,366.3159 Q1013.0601,368.4077 1013.7449,369.4744 Q1014.4297,370.541 1015.7744,370.541 Q1016.4053,370.541 1016.9988,370.2712 Q1017.5923,370.0015 1018.2231,369.4204 Z "/><text fill="#000000" font-family="sans-serif" font-size="12" lengthAdjust="spacingAndGlyphs" textLength="42" x="1036.25" y="370.5352">Squeak</text><line style="stroke: #A80036; stroke-width: 1.5;" x1="972" x2="1110" y1="382" y2="382"/><line style="stroke: #A80036; stroke-width: 1.5;" x1="972" x2="1110" y1="390" y2="390"/><ellipse cx="982" cy="401.9775" fill="#84BE84" rx="3" ry="3" style="stroke: #038048; stroke-width: 1.0;"/><text fill="#000000" font-family="sans-serif" font-size="11" lengthAdjust="spacingAndGlyphs" textLength="114" x="991" y="404.6348">void quack() //吱吱叫</text><!--class MuteQuack--><rect fill="#FEFECE" filter="url(#f15zgtzd23thd6)" height="60.9551" id="MuteQuack" style="stroke: #A80036; stroke-width: 1.5;" width="140" x="1146" y="350"/><ellipse cx="1180.8" cy="366" fill="#ADD1B2" rx="11" ry="11" style="stroke: #A80036; stroke-width: 1.0;"/><path d="M1183.2731,372.1431 Q1182.6921,372.4419 1182.0529,372.5913 Q1181.4138,372.7407 1180.7082,372.7407 Q1178.2014,372.7407 1176.8815,371.0889 Q1175.5617,369.437 1175.5617,366.3159 Q1175.5617,363.1865 1176.8815,361.5347 Q1178.2014,359.8828 1180.7082,359.8828 Q1181.4138,359.8828 1182.0612,360.0322 Q1182.7087,360.1816 1183.2731,360.4805 L1183.2731,363.2031 Q1182.6423,362.6221 1182.0488,362.3523 Q1181.4553,362.0825 1180.8244,362.0825 Q1179.4797,362.0825 1178.7949,363.1492 Q1178.1101,364.2158 1178.1101,366.3159 Q1178.1101,368.4077 1178.7949,369.4744 Q1179.4797,370.541 1180.8244,370.541 Q1181.4553,370.541 1182.0488,370.2712 Q1182.6423,370.0015 1183.2731,369.4204 Z "/><text fill="#000000" font-family="sans-serif" font-size="12" lengthAdjust="spacingAndGlyphs" textLength="64" x="1199.2" y="370.5352">MuteQuack</text><line style="stroke: #A80036; stroke-width: 1.5;" x1="1147" x2="1285" y1="382" y2="382"/><line style="stroke: #A80036; stroke-width: 1.5;" x1="1147" x2="1285" y1="390" y2="390"/><ellipse cx="1157" cy="401.9775" fill="#84BE84" rx="3" ry="3" style="stroke: #038048; stroke-width: 1.0;"/><text fill="#000000" font-family="sans-serif" font-size="11" lengthAdjust="spacingAndGlyphs" textLength="114" x="1166" y="404.6348">void quack() //不会叫</text><!--class Duck--><rect fill="#FEFECE" filter="url(#f15zgtzd23thd6)" height="125.7305" id="Duck" style="stroke: #A80036; stroke-width: 1.5;" width="194" x="65" y="43"/><ellipse cx="143.25" cy="59" fill="#A9DCDF" rx="11" ry="11" style="stroke: #A80036; stroke-width: 1.0;"/><path d="M143.3633,54.5981 L142.2095,59.6699 L144.5254,59.6699 Z M141.8691,52.3569 L144.8657,52.3569 L148.2109,64.75 L145.7622,64.75 L144.9985,61.687 L141.7197,61.687 L140.9727,64.75 L138.5239,64.75 Z "/><text fill="#000000" font-family="sans-serif" font-size="12" font-style="italic" lengthAdjust="spacingAndGlyphs" textLength="29" x="163.75" y="63.5352">Duck</text><line style="stroke: #A80036; stroke-width: 1.5;" x1="66" x2="258" y1="75" y2="75"/><rect fill="none" height="6" style="stroke: #C82930; stroke-width: 1.0;" width="6" x="73" y="83.9775"/><text fill="#000000" font-family="sans-serif" font-size="11" lengthAdjust="spacingAndGlyphs" textLength="128" x="85" y="89.6348">FlyBehavior* flyBehavior</text><rect fill="none" height="6" style="stroke: #C82930; stroke-width: 1.0;" width="6" x="73" y="96.9326"/><text fill="#000000" font-family="sans-serif" font-size="11" lengthAdjust="spacingAndGlyphs" textLength="166" x="85" y="102.5898">QuackBehavior* quackBehavior</text><line style="stroke: #A80036; stroke-width: 1.5;" x1="66" x2="258" y1="108.9102" y2="108.9102"/><ellipse cx="76" cy="120.8877" fill="#84BE84" rx="3" ry="3" style="stroke: #038048; stroke-width: 1.0;"/><text fill="#000000" font-family="sans-serif" font-size="11" lengthAdjust="spacingAndGlyphs" textLength="141" x="85" y="123.5449">void PerformSwim() //游泳</text><ellipse cx="76" cy="133.8428" fill="#84BE84" rx="3" ry="3" style="stroke: #038048; stroke-width: 1.0;"/><text fill="#000000" font-family="sans-serif" font-size="11" lengthAdjust="spacingAndGlyphs" textLength="129" x="85" y="136.5">void PerformFly() //飞行</text><ellipse cx="76" cy="146.7979" fill="#84BE84" rx="3" ry="3" style="stroke: #038048; stroke-width: 1.0;"/><text fill="#000000" font-family="sans-serif" font-size="11" lengthAdjust="spacingAndGlyphs" textLength="137" x="85" y="149.4551">void PerformQuack() //叫</text><ellipse cx="76" cy="159.7529" fill="#84BE84" rx="3" ry="3" style="stroke: #038048; stroke-width: 1.0;"/><text fill="#000000" font-family="sans-serif" font-size="11" lengthAdjust="spacingAndGlyphs" textLength="168" x="85" y="162.4102">virtual void display() //自我介绍</text><!--class MallardDuck--><rect fill="#FEFECE" filter="url(#f15zgtzd23thd6)" height="60.9551" id="MallardDuck" style="stroke: #A80036; stroke-width: 1.5;" width="104" x="22" y="229"/><ellipse cx="37" cy="245" fill="#ADD1B2" rx="11" ry="11" style="stroke: #A80036; stroke-width: 1.0;"/><path d="M39.4731,251.1431 Q38.8921,251.4419 38.2529,251.5913 Q37.6138,251.7407 36.9082,251.7407 Q34.4014,251.7407 33.0815,250.0889 Q31.7617,248.437 31.7617,245.3159 Q31.7617,242.1865 33.0815,240.5347 Q34.4014,238.8828 36.9082,238.8828 Q37.6138,238.8828 38.2612,239.0322 Q38.9087,239.1816 39.4731,239.4805 L39.4731,242.2031 Q38.8423,241.6221 38.2488,241.3523 Q37.6553,241.0825 37.0244,241.0825 Q35.6797,241.0825 34.9949,242.1492 Q34.3101,243.2158 34.3101,245.3159 Q34.3101,247.4077 34.9949,248.4744 Q35.6797,249.541 37.0244,249.541 Q37.6553,249.541 38.2488,249.2712 Q38.8423,249.0015 39.4731,248.4204 Z "/><text fill="#000000" font-family="sans-serif" font-size="12" lengthAdjust="spacingAndGlyphs" textLength="72" x="51" y="249.5352">MallardDuck</text><line style="stroke: #A80036; stroke-width: 1.5;" x1="23" x2="125" y1="261" y2="261"/><line style="stroke: #A80036; stroke-width: 1.5;" x1="23" x2="125" y1="269" y2="269"/><text fill="#000000" font-family="sans-serif" font-size="11" lengthAdjust="spacingAndGlyphs" textLength="72" x="28" y="283.6348">void display()</text><!--class YellowDuck--><rect fill="#FEFECE" filter="url(#f15zgtzd23thd6)" height="60.9551" id="YellowDuck" style="stroke: #A80036; stroke-width: 1.5;" width="97" x="161.5" y="229"/><ellipse cx="176.5" cy="245" fill="#ADD1B2" rx="11" ry="11" style="stroke: #A80036; stroke-width: 1.0;"/><path d="M178.9731,251.1431 Q178.3921,251.4419 177.7529,251.5913 Q177.1138,251.7407 176.4082,251.7407 Q173.9014,251.7407 172.5815,250.0889 Q171.2617,248.437 171.2617,245.3159 Q171.2617,242.1865 172.5815,240.5347 Q173.9014,238.8828 176.4082,238.8828 Q177.1138,238.8828 177.7612,239.0322 Q178.4087,239.1816 178.9731,239.4805 L178.9731,242.2031 Q178.3423,241.6221 177.7488,241.3523 Q177.1553,241.0825 176.5244,241.0825 Q175.1797,241.0825 174.4949,242.1492 Q173.8101,243.2158 173.8101,245.3159 Q173.8101,247.4077 174.4949,248.4744 Q175.1797,249.541 176.5244,249.541 Q177.1553,249.541 177.7488,249.2712 Q178.3423,249.0015 178.9731,248.4204 Z "/><text fill="#000000" font-family="sans-serif" font-size="12" lengthAdjust="spacingAndGlyphs" textLength="65" x="190.5" y="249.5352">YellowDuck</text><line style="stroke: #A80036; stroke-width: 1.5;" x1="162.5" x2="257.5" y1="261" y2="261"/><line style="stroke: #A80036; stroke-width: 1.5;" x1="162.5" x2="257.5" y1="269" y2="269"/><text fill="#000000" font-family="sans-serif" font-size="11" lengthAdjust="spacingAndGlyphs" textLength="72" x="167.5" y="283.6348">void display()</text><!--link FlyBehavior to FlyWithWings--><path d="M405.462,306.9349 C395.5315,321.4119 384.882,336.9371 375.9377,349.9764 " fill="none" id="FlyBehavior-FlyWithWings" style="stroke: #A80036; stroke-width: 1.0; stroke-dasharray: 7.0,7.0;"/><polygon fill="none" points="399.9699,302.5665,417.0556,290.0334,411.5148,310.4858,399.9699,302.5665" style="stroke: #A80036; stroke-width: 1.0;"/><!--link FlyBehavior to FlyNoWay--><path d="M470.93,306.9349 C480.9802,321.4119 491.758,336.9371 500.81,349.9764 " fill="none" id="FlyBehavior-FlyNoWay" style="stroke: #A80036; stroke-width: 1.0; stroke-dasharray: 7.0,7.0;"/><polygon fill="none" points="464.8519,310.4545,459.1967,290.0334,476.3524,302.4707,464.8519,310.4545" style="stroke: #A80036; stroke-width: 1.0;"/><!--link FlyBehavior to FlyWithRocket--><path d="M504.222,291.4238 C541.7053,309.4934 588.3474,331.9782 625.3922,349.8365 " fill="none" id="FlyBehavior-FlyWithRocket" style="stroke: #A80036; stroke-width: 1.0; stroke-dasharray: 7.0,7.0;"/><polygon fill="none" points="501.0745,297.6774,486.0983,282.6868,507.154,285.0663,501.0745,297.6774" style="stroke: #A80036; stroke-width: 1.0;"/><!--link QuackBehavior to Quack--><path d="M919.2368,306.458 C908.7304,321.0704 897.4251,336.7938 887.9467,349.9764 " fill="none" id="QuackBehavior-Quack" style="stroke: #A80036; stroke-width: 1.0; stroke-dasharray: 7.0,7.0;"/><polygon fill="none" points="913.6873,302.1853,931.0462,290.0334,925.0541,310.3582,913.6873,302.1853" style="stroke: #A80036; stroke-width: 1.0;"/><!--link QuackBehavior to Squeak--><path d="M987.1513,306.458 C997.7785,321.0704 1009.2137,336.7938 1018.801,349.9764 " fill="none" id="QuackBehavior-Squeak" style="stroke: #A80036; stroke-width: 1.0; stroke-dasharray: 7.0,7.0;"/><polygon fill="none" points="981.3084,310.3254,975.2061,290.0334,992.6307,302.0909,981.3084,310.3254" style="stroke: #A80036; stroke-width: 1.0;"/><!--link QuackBehavior to MuteQuack--><path d="M1029.9398,294.8982 C1067.888,312.3572 1113.205,333.2065 1149.6141,349.9574 " fill="none" id="QuackBehavior-MuteQuack" style="stroke: #A80036; stroke-width: 1.0; stroke-dasharray: 7.0,7.0;"/><polygon fill="none" points="1026.9385,301.2227,1011.695,286.5042,1032.79,288.5042,1026.9385,301.2227" style="stroke: #A80036; stroke-width: 1.0;"/><!--link Duck to MallardDuck--><path d="M115.6905,186.7786 C107.1442,201.686 98.7145,216.3901 91.6956,228.6332 " fill="none" id="Duck-MallardDuck" style="stroke: #A80036; stroke-width: 1.0;"/><polygon fill="none" points="109.679,183.19,125.699,169.3205,121.8246,190.153,109.679,183.19" style="stroke: #A80036; stroke-width: 1.0;"/><!--link Duck to YellowDuck--><path d="M187.8674,188.7217 C192.3197,202.9599 196.6858,216.9224 200.3478,228.6332 " fill="none" id="Duck-YellowDuck" style="stroke: #A80036; stroke-width: 1.0;"/><polygon fill="none" points="181.0887,190.4982,181.8006,169.3205,194.4506,186.3199,181.0887,190.4982" style="stroke: #A80036; stroke-width: 1.0;"/><!--link Duck to FlyBehavior--><path d="M259.3073,160.1184 C301.6385,183.6613 349.5799,210.3243 385.1409,230.1019 " fill="none" id="Duck-FlyBehavior" style="stroke: #A80036; stroke-width: 1.0;"/><polygon fill="#A80036" points="389.8542,232.7233,383.933,224.8531,385.4845,230.293,380.0446,231.8446,389.8542,232.7233" style="stroke: #A80036; stroke-width: 1.0;"/><!--link Duck to QuackBehavior--><path d="M259.0754,116.2584 C381.0767,130.2671 596.3838,158.6969 777,202 C814.8381,211.0718 856.2431,224.4202 889.3821,235.9728 " fill="none" id="Duck-QuackBehavior" style="stroke: #A80036; stroke-width: 1.0;"/><polygon fill="#A80036" points="894.2101,237.6635,887.0381,230.9135,889.4911,236.0108,884.3938,238.4638,894.2101,237.6635" style="stroke: #A80036; stroke-width: 1.0;"/><!--
@startuml

package FlyBehaviors <<Rectangle>> 
{
    interface FlyBehavior 
    {
        +void fly()
    }

    class FlyWithWings 
    {
        +void fly() //带着翅膀飞
    }

    class FlyNoWay 
    {
        +void fly() //不会飞
    }

    class FlyWithRocket {
        +void fly() //坐着火箭飞
    }
}
FlyBehavior <|.. FlyWithWings
FlyBehavior <|.. FlyNoWay
FlyBehavior <|.. FlyWithRocket


package QuackBehaviors <<Rectangle>> 
{
    interface QuackBehavior 
    {
        +void quack()
    }

    class Quack 
    {
        +void quack() //呱呱叫
    }

    class Squeak 
    {
        +void quack() //吱吱叫
    }

    class MuteQuack 
    {
        +void quack() //不会叫
    }
}

QuackBehavior <|.. Quack
QuackBehavior <|.. Squeak
QuackBehavior <|.. MuteQuack


package Ducks <<Rectangle>> 
{
    abstract class Duck 
    {
        +void PerformSwim() //游泳
        +void PerformFly() //飞行
        +void PerformQuack() //叫
        +virtual void display() //自我介绍
        -FlyBehavior* flyBehavior
        -QuackBehavior* quackBehavior
    }

    class MallardDuck 
    {
        void display()
    }

    class YellowDuck 
    {
        void display()
    }
}
Duck <|- - MallardDuck
Duck <|- - YellowDuck
Duck - -> FlyBehavior
Duck - -> QuackBehavior


@enduml

PlantUML version 1.2019.06(Sat May 25 01:10:25 CST 2019)
(GPL source distribution)
Java Runtime: Java(TM) SE Runtime Environment
JVM: Java HotSpot(TM) 64-Bit Server VM
Java Version: 12.0.2+10
Operating System: Mac OS X
OS Version: 10.14.5
Default Encoding: UTF-8
Language: zh
Country: CN
--></g></svg>